<svg xmlns="http://www.w3.org/2000/svg" width="31.327" height="26.106" viewBox="0 0 31.327 26.106"><defs><style>.a{fill:#565656;}</style></defs><path class="a" d="M2.611,8.221H0v6.526H.013L0,26.5a2.618,2.618,0,0,0,2.611,2.611h23.5V26.5H2.611ZM28.716,5.611H18.274L15.663,3H7.832a2.607,2.607,0,0,0-2.6,2.611L5.221,21.274a2.618,2.618,0,0,0,2.611,2.611H28.716a2.618,2.618,0,0,0,2.611-2.611V8.221A2.618,2.618,0,0,0,28.716,5.611ZM9.137,19.969l5.874-7.832,4.568,5.887,3.263-3.929,4.569,5.874Z" transform="translate(0 -3)"/></svg>