<svg xmlns="http://www.w3.org/2000/svg" width="20.281" height="29.5" viewBox="0 0 20.281 29.5"><defs><style>.a{fill:#565656;}</style></defs><path class="a" d="M10.141,20.281a5.531,5.531,0,0,0,5.531-5.531V5.531a5.531,5.531,0,1,0-11.063,0V14.75A5.531,5.531,0,0,0,10.141,20.281Zm9.219-9.219h-.922a.922.922,0,0,0-.922.922V14.75A7.384,7.384,0,0,1,9.4,22.089a7.6,7.6,0,0,1-6.638-7.668V11.984a.922.922,0,0,0-.922-.922H.922A.922.922,0,0,0,0,11.984V14.3A10.458,10.458,0,0,0,8.758,24.767v1.968H5.531a.922.922,0,0,0-.922.922v.922a.922.922,0,0,0,.922.922H14.75a.922.922,0,0,0,.922-.922v-.922a.922.922,0,0,0-.922-.922H11.523V24.789A10.15,10.15,0,0,0,20.281,14.75V11.984A.922.922,0,0,0,19.359,11.063Z"/></svg>